<?xml version="1.0" encoding="UTF-8" standalone="no"?>
<svg width="147px" height="144px" viewBox="0 0 147 144" version="1.1" xmlns="http://www.w3.org/2000/svg" xmlns:xlink="http://www.w3.org/1999/xlink" xmlns:sketch="http://www.bohemiancoding.com/sketch/ns">
    <!-- Generator: Sketch 3.1.1 (8761) - http://www.bohemiancoding.com/sketch -->
    <title>Group</title>
    <desc>Created with Sketch.</desc>
    <defs></defs>
    <g id="Page-1" stroke="none" stroke-width="1" fill="none" fill-rule="evenodd" sketch:type="MSPage">
        <g id="Group" sketch:type="MSLayerGroup" transform="translate(0.000000, 1.000000)">
            <path d="M35.8491211,4.31982422 L55.3657227,4.32519531 L55.6166992,10.706543 L67.0112305,11.2119141 L72.3037109,7.95166016 L72.3037109,4.32666016 L82.3730469,0.541015625 L92.5415039,0.165039062 L94.0415039,2.91503906 L100.577637,2.41210937 L100.572266,9.29638672 L104.859863,9.17675781 L104.493652,16.9375 L111.795898,16.4428711 L112.672852,19.4594727 L110.922852,21.5844727 L114.557617,26.7143555 L115.168945,31.7441406 L114.709473,84.6079102 L50.847168,99.4199219 L35.5854492,99.5395508 L35.3354492,96.2768555 L11.340332,96.2763672 L12.4477539,74.5761719 L11.0727539,72.5761719 L8.32275391,72.4511719 L2.58398438,64.3994141 L2.33935547,61.3833008 L0.339355469,61.5083008 L6.21826172,57.1435547 L11.7666016,59.1352539 L16.269043,59.5126953 L16.519043,58.1376953 L23.6435547,55.5141602 L23.387207,36.3129883 L36.4887695,36.1552734 L35.8491211,4.31982422 Z" id="Path-5" fill="#8BBB81" sketch:type="MSShapeGroup"></path>
            <text id="LAKE" sketch:type="MSTextLayer" font-family="Avenir Next" font-size="10" font-weight="bold" fill="#000000">
                <tspan x="92" y="80">LAKE</tspan>
            </text>
            <text id="MARION" sketch:type="MSTextLayer" font-family="Avenir Next" font-size="10" font-weight="bold" fill="#000000">
                <tspan x="57" y="41">MARION</tspan>
            </text>
            <text id="SUMTER" sketch:type="MSTextLayer" transform="translate(69.000000, 87.000000) rotate(-62.000000) translate(-69.000000, -87.000000) " font-family="Avenir Next" font-size="10" font-weight="bold" fill="#000000">
                <tspan x="48" y="90">SUMTER</tspan>
            </text>
            <text id="CITRUS" sketch:type="MSTextLayer" font-family="Avenir Next" font-size="10" font-weight="bold" fill="#000000">
                <tspan x="15" y="85">CITRUS</tspan>
            </text>
            <path d="M35.8491211,4.31982422 L55.3657227,4.32519531 L55.6166992,10.706543 L67.0112305,11.2119141 L72.3037109,7.95166016 L72.3037109,4.32666016 L82.3730469,0.541015625 L92.5415039,0.165039062 L94.0415039,2.91503906 L100.577637,2.41210937 L100.572266,9.29638672 L104.859863,9.17675781 L104.493652,16.9375 L111.795898,16.4428711 L112.672852,19.4594727 L110.922852,21.5844727 L114.557617,26.7143555 L115.168945,31.7441406 L117.442383,32.7578125 L117.321777,35.2705078 L122.554688,36.1323242 L126.441895,38.8964844 L129.549316,46.0839844 L129.674316,48.3339844 L134.414062,48.331543 L134.539062,51.331543 L144.591797,61.168457 L143.466797,62.668457 L145.841797,66.043457 L144.716797,68.168457 L144.716797,72.543457 L139.563477,79.6005859 L139.313477,84.4755859 L114.709473,84.4794922 L114.400879,136.439453 L101.450195,136.554688 L100.575195,134.679688 L94.6625977,134.407227 L94.5463867,136.398926 L83.7304688,136.390137 L83.6054688,141.286621 L80.8554688,141.536621 L79.4804688,139.411621 L75.8554688,139.161621 L74.3769531,140.536621 L73.6845703,115.601562 L69.668457,115.601562 L64.1630859,110.585449 L57.1225586,110.59082 L50.847168,99.4199219 L35.5854492,99.5395508 L35.3354492,96.2768555 L11.340332,96.2763672 L12.4477539,74.5761719 L11.0727539,72.5761719 L8.32275391,72.4511719 L2.58398438,64.3994141 L2.33935547,61.3833008 L0.339355469,61.5083008 L6.21826172,57.1435547 L11.7666016,59.1352539 L16.269043,59.5126953 L16.519043,58.1376953 L23.6435547,55.5141602 L23.387207,36.3129883 L36.4887695,36.1552734 L35.8491211,4.31982422 Z" id="Path-1" stroke="#000000" sketch:type="MSShapeGroup"></path>
            <path d="M24.0126953,55.3564453 L27.253418,55.4794922 L27.878418,54.4794922 L30.253418,54.6044922 L32.496582,56.0996094 L34.746582,58.7246094 L37.246582,58.7246094 L39.9785156,60.3452148 L44.8583984,63.3427734 L46.9814453,65.3447266 L49.3662109,70.3730469 L50.7539062,73.1450195 L53.7700195,75.0307617 L54.7729492,77.2915039 L58.2592773,79.909668 L60.012207,82.796875 L60.762207,84.796875 L59.137207,87.671875 L57.012207,89.546875 L53.7783203,93.0263672 L52.7783203,95.2763672 L52.5283203,98.4013672 L51.5283203,99.4013672" id="Path-2" stroke="#000000" sketch:type="MSShapeGroup"></path>
            <path d="M46.4150391,64.5166016 L113.430664,64.4023438 L113.675293,53.1577148 L115.566406,53.1577148 L115.325195,31.3081055" id="Path-3" stroke="#000000" sketch:type="MSShapeGroup"></path>
            <path d="M83.5522461,64.8325195 L83.7558594,135.722656" id="Path-4" stroke="#000000" sketch:type="MSShapeGroup"></path>
        </g>
    </g>
</svg>