<?xml version="1.0" encoding="UTF-8" standalone="no"?>
<svg width="267px" height="212px" viewBox="0 0 267 212" version="1.1" xmlns="http://www.w3.org/2000/svg" xmlns:xlink="http://www.w3.org/1999/xlink" xmlns:sketch="http://www.bohemiancoding.com/sketch/ns">
    <!-- Generator: Sketch 3.1.1 (8761) - http://www.bohemiancoding.com/sketch -->
    <title>Oval 1 + Line + Line 2 + Rehab</title>
    <desc>Created with Sketch.</desc>
    <defs></defs>
    <g id="Page-1" stroke="none" stroke-width="1" fill="none" fill-rule="evenodd" sketch:type="MSPage">
        <g id="Oval-1-+-Line-+-Line-2-+-Rehab-+-Dr.-Boyd-T.-Cantrell-2" sketch:type="MSLayerGroup" transform="translate(-40.000000, 1.000000)">
            <g id="Oval-1-+-Line-+-Line-2-+-Rehab" transform="translate(41.000000, 0.000000)">
                <g id="Oval-1-+-Line-+-Line-2" stroke="#000000" sketch:type="MSShapeGroup">
                    <circle id="Oval-1" cx="20" cy="190" r="20"></circle>
                    <circle id="Oval-4" cx="20" cy="190" r="15"></circle>
                    <path d="M19.7098159,0 L19.7098159,191.35077" id="Line" stroke-width="2" stroke-linecap="square"></path>
                    <path d="M265,191 L20,191" id="Line-2" stroke-width="2" stroke-linecap="square"></path>
                    <circle id="Oval-3" fill="#000000" cx="20" cy="191" r="3"></circle>
                    <path d="M29.5,181.5 L34.5,176.5" id="Line-3" stroke-linecap="square"></path>
                    <path d="M6.5,203.5 L10.5,199.5" id="Line-4" stroke-linecap="square"></path>
                    <path d="M29.5,203.5 L33.5,199.5" id="Line-5" stroke-linecap="square" transform="translate(31.500000, 201.500000) scale(-1, 1) translate(-31.500000, -201.500000) "></path>
                    <path d="M6.5,180.5 L10.5,176.5" id="Line-6" stroke-linecap="square" transform="translate(8.500000, 178.500000) scale(-1, 1) translate(-8.500000, -178.500000) "></path>
                    <path d="M0.5,190.5 L7.5,190.5" id="Line-5" stroke-linecap="square"></path>
                    <path d="M19.5,209.5 L19.5,202.5" id="Line-5" stroke-linecap="square"></path>
                </g>
                <text id="Rehab" sketch:type="MSTextLayer" font-family="Helvetica Neue" font-size="48" font-weight="normal" letter-spacing="0.999999642" fill="#000000">
                    <tspan x="45" y="52">R</tspan>
                    <tspan x="78.8799996" y="52" font-weight="260">ehab</tspan>
                    <tspan x="45" y="109">S</tspan>
                    <tspan x="77.1039996" y="109" font-weight="260">taffing</tspan>
                    <tspan x="45" y="166">S</tspan>
                    <tspan x="77.1039996" y="166" font-weight="260">olutions</tspan>
                </text>
            </g>
        </g>
    </g>
</svg>